# xmcd
# 
# Track frame offsets:
#     150
#     16728
#     34977
#     48628
#     85754
#     113981
#     125618
#     140121
#     157770
#     186492
# 
# Disc length: 2638
# 
# Revision: 0
# Processed by: cddbd v1.5.2PL0 Copyright (c) Steve Scherf et al.
# Submitted via: fre:ac v1.0.17
# 
DISCID=870a4c0a
DTITLE=The Blues Vision - Counting Sheep
DYEAR=2013
DGENRE=Blues
TTITLE0=Counting Sheep
TTITLE1=Brand New Cadillac
TTITLE2=Morpheus
TTITLE3=Alabama Train
TTITLE4=Highway 49 
TTITLE5=Rollin' and Tumblin' 
TTITLE6=When I Get Drunk 
TTITLE7=Coffee 
TTITLE8=My Breadmachine Is Broken 
TTITLE9=Fraq Tac 
EXTD=
EXTT0=
EXTT1=
EXTT2=
EXTT3=
EXTT4=
EXTT5=
EXTT6=
EXTT7=
EXTT8=
EXTT9=
PLAYORDER=
